<svg xmlns="http://www.w3.org/2000/svg" version="1.1" xmlns:xlink="http://www.w3.org/1999/xlink" xmlns:svgjs="http://svgjs.dev/svgjs" width="1000" height="1000" viewBox="0 0 1000 1000"><rect width="1000" height="1000" fill="#000000"></rect><g transform="matrix(0.7,0,0,0.7,149.46955589318185,223.37418051834578)"><svg viewBox="0 0 312 247" data-background-color="#ffffff" preserveAspectRatio="xMidYMid meet" height="791" width="1000" xmlns="http://www.w3.org/2000/svg" xmlns:xlink="http://www.w3.org/1999/xlink"><g id="tight-bounds" transform="matrix(1,0,0,1,0.2364265161818082,-0.10000467406788971)"><svg viewBox="0 0 311.5271375464684 247.2" height="247.2" width="311.5271375464684"><g><svg viewBox="0 0 311.5271375464684 247.2" height="247.2" width="311.5271375464684"><g><svg viewBox="0 0 311.5271375464684 247.2" height="247.2" width="311.5271375464684"><g id="textblocktransform"><svg viewBox="0 0 311.5271375464684 247.2" height="247.2" width="311.5271375464684" id="textblock"><g><svg viewBox="0 0 311.5271375464684 247.2" height="247.2" width="311.5271375464684"><g transform="matrix(1,0,0,1,0,0)"><svg width="311.5271375464684" viewBox="-0.30000001192092896 -36 50.849998474121094 40.349998474121094" height="247.2" data-palette-color="#1c4b82"><g class="undefined-text-0" data-fill-palette-color="primary" id="text-0"><path d="M10.15 4.35L10.15 4.35Q7.45 4.35 5.05 3.38 2.65 2.4 1.18 0.4-0.3-1.6-0.3-4.6L-0.3-4.6Q-0.3-7.2 0.73-8.65 1.75-10.1 3.25-10.7 4.75-11.3 6.1-11.3L6.1-11.3Q4.75-9.85 4.05-8.1 3.35-6.35 3.35-4.6L3.35-4.6Q3.35-2.75 4.17-1.15 5 0.45 6.7 1.43 8.4 2.4 11 2.4L11 2.4Q13.25 2.4 15.4 1.58 17.55 0.75 18.93-0.88 20.3-2.5 20.3-4.9L20.3-4.9Q20.3-7.05 19.2-8.6 18.1-10.15 16.38-11.35 14.65-12.55 12.7-13.65 10.75-14.75 9.03-15.98 7.3-17.2 6.2-18.8 5.1-20.4 5.1-22.65L5.1-22.65Q5.1-24.75 6.1-27.05 7.1-29.35 8.97-31.4 10.85-33.45 13.48-34.73 16.1-36 19.35-36L19.35-36Q22.3-36 23.45-34.58 24.6-33.15 24.6-31L24.6-31Q24.6-29.2 23.98-27.13 23.35-25.05 22.45-23.18 21.55-21.3 20.75-20L20.75-20Q19.85-20.2 19.48-20.78 19.1-21.35 19.1-22.15L19.1-22.15Q19.1-23.2 19.55-24.55 20-25.9 20.58-27.35 21.15-28.8 21.6-30.18 22.05-31.55 22.05-32.65L22.05-32.65Q22.05-33.65 21.45-34.23 20.85-34.8 19.25-34.8L19.25-34.8Q16.9-34.8 14.9-33.7 12.9-32.6 11.4-30.88 9.9-29.15 9.08-27.25 8.25-25.35 8.25-23.8L8.25-23.8Q8.25-21.95 9.33-20.63 10.4-19.3 12.1-18.23 13.8-17.15 15.73-16.07 17.65-15 19.35-13.7 21.05-12.4 22.13-10.63 23.2-8.85 23.2-6.3L23.2-6.3Q23.2-3.7 22.05-1.73 20.9 0.25 18.98 1.6 17.05 2.95 14.75 3.65 12.45 4.35 10.15 4.35ZM41.65 1.9L41.65 1.9Q40.25 1.9 39.25 0.95 38.25 0 37.67-1.45 37.1-2.9 36.82-4.42 36.55-5.95 36.55-7.1L36.55-7.1Q37.1-7.1 38.15-7.38 39.2-7.65 40.3-8.22 41.4-8.8 42.17-9.73 42.95-10.65 42.95-11.9L42.95-11.9Q42.95-12.95 42.2-13.55 41.45-14.15 40.45-14.15L40.45-14.15Q38.9-14.15 37.55-13.08 36.2-12 35.12-10.28 34.05-8.55 33.2-6.6 32.35-4.65 31.75-2.9 31.15-1.15 30.75 0L30.75 0Q30.45 0.9 29.9 1.23 29.35 1.55 28.75 1.55L28.75 1.55Q27.9 1.55 27.52 0.85 27.15 0.15 27.07-0.93 27-2 27-3.15L27-3.15Q27-5.75 27.85-9.15 28.7-12.55 30.12-16.23 31.55-19.9 33.25-23.35 34.95-26.8 36.65-29.6 38.35-32.4 39.8-34.05 41.25-35.7 42.15-35.7L42.15-35.7Q42.85-35.7 43.27-34.75 43.7-33.8 43.7-32.45L43.7-32.45Q43.7-30.75 42.95-28.63 42.2-26.5 40.82-24.35 39.45-22.2 37.57-20.3 35.7-18.4 33.5-17.05L33.5-17.05Q31.85-13 31.02-9.18 30.2-5.35 30.2-2.75L30.2-2.75Q31-4.75 32.12-7.15 33.25-9.55 34.7-11.75 36.15-13.95 37.85-15.35 39.55-16.75 41.4-16.75L41.4-16.75Q43.25-16.75 44.55-15.45 45.85-14.15 45.85-12.3L45.85-12.3Q45.85-10.7 45.02-9.58 44.2-8.45 43.02-7.78 41.85-7.1 40.67-6.78 39.5-6.45 38.75-6.45L38.75-6.45Q38.8-6.05 39.05-5 39.3-3.95 39.77-2.8 40.25-1.65 40.95-0.83 41.65 0 42.65 0L42.65 0Q44.1 0 45.4-1.1 46.7-2.2 47.87-4.03 49.05-5.85 50.05-8.15L50.05-8.15 50.55-7.65Q49.85-5.2 48.4-3.03 46.95-0.85 45.17 0.53 43.4 1.9 41.65 1.9ZM34.35-19.05L34.35-19.05Q36.65-20.9 38.37-23.25 40.1-25.6 41.05-27.78 42-29.95 42-31.2L42-31.2Q42-31.45 41.97-31.55 41.95-31.65 41.85-31.65L41.85-31.65Q41.35-31.65 40.12-29.9 38.9-28.15 37.35-25.28 35.8-22.4 34.35-19.05Z" fill="#ffffff" data-fill-palette-color="primary"></path></g></svg></g></svg></g></svg></g></svg></g></svg></g><defs></defs></svg><rect width="311.5271375464684" height="247.2" fill="none" stroke="none" visibility="hidden"></rect></g></svg></g></svg>